<svg width="507" height="427" viewBox="0 0 507 427" fill="none" xmlns="http://www.w3.org/2000/svg">
<g clip-path="url(#clip0_26_1569)">
<path d="M135.79 393.913L144.242 396.935L159.92 365.767L147.445 361.307L135.79 393.913Z" fill="#A0616A"/>
<path d="M146.561 399.776L148.61 394.045L146.339 393.386L137.103 390.688L134.963 390.068L126.501 408.689L126.047 409.687L132.049 411.833L132.607 410.88L135.139 406.547L135.729 411.997L135.857 413.195L151.768 418.885C152.717 419.217 153.758 419.162 154.667 418.731C155.575 418.3 156.277 417.528 156.62 416.582C158.413 413.686 147.606 402.172 146.561 399.776Z" fill="#2F2E41"/>
<path d="M75.0698 407.432L84.0453 407.502L88.5869 372.909L75.3391 372.806L75.0698 407.432Z" fill="#A0616A"/>
<path d="M88.0645 406.195L87.6286 400.124L85.2852 400.437L75.7448 401.691L73.5371 401.986L73.3018 422.439L73.2892 423.535L79.6464 423.08L79.773 421.983L80.343 416.996L83.0802 421.746L83.6802 422.791L100.534 421.582C101.537 421.504 102.468 421.033 103.125 420.272C103.783 419.512 104.114 418.522 104.046 417.519C104.519 414.145 89.9869 407.966 88.0645 406.195Z" fill="#2F2E41"/>
<path d="M141.559 183.285L155.509 202.082C155.509 202.082 147.728 201.481 155.487 204.927C163.245 208.372 163.475 207.178 163.333 211.279C163.19 215.38 155.259 214.705 159.194 218.936C163.129 223.166 189.271 279.209 189.271 279.209C189.271 279.209 166.858 359.876 164.043 363.152C161.228 366.428 158.138 363.289 161.228 366.428C164.317 369.567 168.24 365.705 164.317 369.567C160.394 373.43 155.001 380.258 155.001 380.258L139.338 377.937C139.338 377.937 122.339 361.452 149.8 334.413C149.8 334.413 156.873 307.202 153.833 307.185C150.792 307.167 150.758 311.563 150.827 302.747L150.896 293.93L115.342 226.038C115.342 226.038 92.4556 207.892 92.8816 199.682C93.3077 191.473 141.559 183.285 141.559 183.285Z" fill="#2F2E41"/>
<path d="M115.805 201.772C115.805 201.772 131.507 284.434 129.153 286.752C126.799 289.07 126.753 294.931 126.753 294.931L88.7346 377.541L73.9368 378.204C73.7735 354.482 73.8183 336.49 86.8509 319.904L94.0374 197.708L115.805 201.772Z" fill="#2F2E41"/>
<path d="M137.798 103.966L120.091 89.7574L110.742 89.1403L96.7941 97.9238L93.2598 115.237L85.0697 134.699L96.4447 187.485C96.4447 187.485 97.5206 191.275 94.6198 191.707C91.7191 192.138 92.0227 197.715 92.0227 197.715C92.0227 197.715 92.5748 202.55 89.7582 202.953C86.9416 203.357 79.4398 203.298 85.938 211.79C92.4362 220.283 144.607 188.763 144.607 188.763L152.458 149.248C152.458 149.248 167.237 129.717 151.575 118.342L137.798 103.966Z" fill="#E6E6E6"/>
<path d="M59.0779 222.996C58.3005 222.01 57.7487 220.865 57.4614 219.643C57.174 218.42 57.1582 217.15 57.4149 215.921C57.6716 214.692 58.1947 213.534 58.9472 212.529C59.6998 211.523 60.6636 210.696 61.7706 210.103L84.7722 135.054L98.7307 142.22L73.7586 214.131C74.6301 216.057 74.765 218.236 74.1376 220.255C73.5103 222.274 72.1643 223.992 70.3548 225.085C68.5452 226.178 66.3978 226.568 64.3194 226.183C62.241 225.798 60.376 224.664 59.0779 222.996Z" fill="#A0616A"/>
<path d="M100.018 97.2529C100.018 97.2529 96.0287 95.0922 93.2163 104.285C90.9648 111.645 72.8201 155.445 72.5093 166.126C71.042 166.425 69.7159 167.203 68.7398 168.339C67.7637 169.475 67.1932 170.903 67.1181 172.399L89.1033 175.521C92.9745 172.307 94.0178 167.933 92.54 166.621L97.4209 153.606L117.682 112.232L102.929 98.7636L100.018 97.2529Z" fill="#E6E6E6"/>
<path d="M216.821 199.502C217.115 198.282 217.137 197.011 216.887 195.781C216.637 194.55 216.12 193.39 215.373 192.38C214.625 191.371 213.666 190.538 212.562 189.94C211.458 189.342 210.237 188.993 208.984 188.919L158.032 129.79L147.024 142.72L199.779 197.592C199.793 199.706 200.581 201.742 201.995 203.313C203.41 204.884 205.351 205.882 207.451 206.118C209.552 206.353 211.666 205.81 213.393 204.591C215.12 203.371 216.339 201.561 216.821 199.502Z" fill="#A0616A"/>
<path d="M127.05 102.414C127.05 102.414 129.77 98.7825 136.169 105.956C141.292 111.699 176.089 143.893 180.838 153.465C182.296 153.123 183.827 153.275 185.188 153.899C186.55 154.522 187.665 155.581 188.359 156.908L169.695 168.941C164.834 167.641 162.058 164.105 162.851 162.295L152.975 152.514L117.269 123.409L125.037 105.004L127.05 102.414Z" fill="#E6E6E6"/>
<path d="M134.506 69.5009C138.634 59.1262 133.571 47.3692 123.198 43.2408C112.825 39.1125 101.07 44.1761 96.9417 54.5508C92.8138 64.9255 97.8765 76.6826 108.25 80.8109C118.623 84.9393 130.378 79.8757 134.506 69.5009Z" fill="#A0616A"/>
<path d="M140.019 43.6832C138.813 42.3617 137.209 41.4701 135.449 41.1439C133.69 40.8178 131.873 41.0749 130.273 41.8762C130.697 39.6074 131.122 37.3385 131.547 35.0696C128.17 34.5256 124.794 33.9816 121.418 33.4377C116.325 32.617 111.076 31.8003 106.051 32.9714C102.454 33.8621 99.1675 35.718 96.5468 38.3388C93.9261 40.9597 92.0702 44.2462 91.1793 47.8442C89.0068 46.346 86.4578 45.487 83.8217 45.3648C81.1857 45.2425 78.5681 45.8619 76.2663 47.1526C73.9644 48.4433 72.0704 50.3536 70.7994 52.6666C69.5283 54.9796 68.9311 57.6027 69.0756 60.238C69.2882 64.1169 71.0728 67.7085 72.1653 71.4364C76.3168 85.6026 69.1268 102.229 55.9623 108.905C60.16 112.142 64.4954 115.45 69.5982 116.884C74.701 118.318 80.8212 117.45 84.2211 113.383C85.9604 111.302 86.8129 108.641 87.6263 106.054C90.9149 95.5931 94.2036 85.1321 97.4923 74.671L102.603 84.0722C104.24 86.4002 103.622 89.6353 102.409 92.21C101.196 94.7848 99.4452 97.1637 98.8895 99.9551C98.3337 102.747 99.5471 106.22 102.32 106.86C106.142 98.059 110.05 88.6794 108.668 79.1842C108.13 75.4887 106.803 71.6926 107.897 68.1221C108.743 65.3632 110.941 63.204 113.377 61.6572C115.927 60.0406 118.785 58.9717 121.77 58.5185C128.367 57.522 136.556 58.9937 140.466 53.5873C141.48 52.113 141.985 50.348 141.904 48.5604C141.824 46.7727 141.162 45.0603 140.019 43.6832Z" fill="#2F2E41"/>
<path d="M126.187 168.799C135.641 168.873 143.366 161.267 143.44 151.812C143.514 142.356 135.91 134.63 126.455 134.556C117.001 134.482 109.277 142.088 109.202 151.544C109.128 160.999 116.732 168.725 126.187 168.799Z" fill="#24B4E8"/>
<path d="M130.385 143.093C130.473 143.466 130.606 143.826 130.782 144.167C130.929 144.551 131.18 144.886 131.506 145.136C131.832 145.386 132.221 145.541 132.63 145.584C132.699 145.582 132.767 145.572 132.834 145.556C133.567 145.381 134.021 144.498 134.037 143.391C134.04 143.008 133.996 142.626 133.907 142.254C133.82 141.884 133.688 141.527 133.514 141.19C133.002 140.204 132.195 139.615 131.46 139.79C130.486 140.022 130.006 141.502 130.385 143.093Z" fill="white"/>
<path d="M131.696 144.169C131.83 144.736 132.161 145.238 132.63 145.584C132.699 145.582 132.767 145.572 132.834 145.556C133.567 145.381 134.021 144.498 134.037 143.391C134.04 143.008 133.996 142.626 133.907 142.254C133.82 141.884 133.688 141.527 133.514 141.19C132.879 141.346 132.331 141.746 131.991 142.304C131.65 142.862 131.544 143.533 131.696 144.169Z" fill="#3F3D56"/>
<path d="M123.09 144.832C123.454 146.36 124.478 147.437 125.421 147.316C125.461 147.312 125.5 147.305 125.538 147.295C126.51 147.064 126.991 145.584 126.611 143.993C126.525 143.624 126.393 143.268 126.22 142.932C125.707 141.943 124.9 141.354 124.164 141.529C123.19 141.761 122.71 143.241 123.09 144.832Z" fill="white"/>
<path d="M124.473 145.891C124.608 146.464 124.945 146.97 125.421 147.316C125.461 147.312 125.5 147.305 125.538 147.295C126.51 147.064 126.991 145.584 126.611 143.993C126.525 143.624 126.393 143.268 126.22 142.932C125.602 143.102 125.075 143.506 124.749 144.058C124.423 144.61 124.324 145.267 124.473 145.891Z" fill="#3F3D56"/>
<path d="M137.472 149.964C138.48 154.195 136.799 158.221 133.716 158.956C130.634 159.691 127.317 156.856 126.309 152.625C130.098 153.608 133.821 152.778 137.472 149.964Z" fill="white"/>
<path opacity="0.2" d="M109.669 155.68C108.855 152.26 109.112 148.672 110.406 145.404C111.7 142.135 113.968 139.344 116.903 137.409C114.154 140.517 112.628 144.518 112.607 148.668C112.587 152.818 114.074 156.834 116.792 159.97C119.51 163.105 123.274 165.147 127.384 165.715C131.494 166.283 135.67 165.339 139.137 163.058C137.06 165.405 134.379 167.138 131.386 168.066C128.393 168.994 125.202 169.082 122.162 168.321C119.123 167.559 116.35 165.978 114.147 163.749C111.944 161.52 110.395 158.729 109.669 155.68Z" fill="black"/>
<path d="M496.602 409.32C496.263 409.333 495.928 409.241 495.643 409.058C495.358 408.874 495.136 408.607 495.008 408.293C494.879 407.979 494.851 407.633 494.925 407.302C495 406.971 495.175 406.671 495.426 406.443L495.542 405.993C495.528 405.957 495.513 405.921 495.498 405.885C495.163 405.076 494.597 404.384 493.87 403.896C493.143 403.408 492.288 403.145 491.412 403.142C490.537 403.138 489.68 403.394 488.949 403.876C488.218 404.358 487.645 405.045 487.304 405.851C485.938 409.069 484.206 412.29 483.76 415.7C483.563 417.207 483.629 418.737 483.955 420.222C480.861 413.33 479.285 405.853 479.333 398.298C479.348 396.402 479.468 394.508 479.693 392.626C479.88 391.083 480.133 389.551 480.455 388.031C482.207 379.783 485.89 372.068 491.202 365.521C493.758 364.151 495.834 362.031 497.149 359.445C497.625 358.516 497.964 357.522 498.156 356.496C497.869 356.531 497.107 352.15 497.326 351.884C496.93 351.273 496.216 350.965 495.784 350.369C493.633 347.404 490.634 347.896 489.039 351.889C485.685 353.549 485.631 356.345 487.66 359.051C488.95 360.772 489.111 363.088 490.241 364.929C490.122 365.079 489.998 365.224 489.88 365.374C487.706 368.124 485.808 371.081 484.211 374.201C484.621 370.694 484.192 367.14 482.961 363.831C481.711 360.747 479.342 358.139 477.26 355.464C476.709 354.746 475.958 354.207 475.101 353.915C474.244 353.624 473.32 353.593 472.445 353.827C471.571 354.061 470.786 354.548 470.188 355.229C469.591 355.909 469.209 356.751 469.09 357.648C469.085 357.687 469.081 357.726 469.076 357.766C469.387 357.944 469.692 358.134 469.989 358.334C470.363 358.588 470.652 358.949 470.817 359.37C470.982 359.791 471.016 360.252 470.915 360.693C470.814 361.134 470.582 361.533 470.249 361.84C469.917 362.147 469.5 362.346 469.053 362.411L469.007 362.418C469.109 363.545 469.297 364.662 469.569 365.761C466.789 376.177 472.585 380.024 480.902 380.26C481.084 380.355 481.263 380.451 481.446 380.542C479.831 385.006 478.804 389.662 478.39 394.391C478.154 397.181 478.145 399.986 478.361 402.778L478.348 402.679C477.77 399.572 476.137 396.76 473.726 394.717C470.144 391.727 465.059 390.596 461.188 388.185C460.777 387.917 460.298 387.771 459.807 387.766C459.315 387.761 458.833 387.897 458.416 388.157C458 388.417 457.666 388.791 457.455 389.234C457.244 389.678 457.164 390.173 457.224 390.66L457.239 390.764C457.817 391.005 458.38 391.281 458.923 391.592C459.234 391.771 459.539 391.96 459.836 392.161C460.21 392.415 460.499 392.776 460.664 393.197C460.829 393.618 460.863 394.079 460.762 394.519C460.661 394.96 460.429 395.36 460.096 395.667C459.764 395.973 459.347 396.172 458.9 396.238L458.854 396.244C458.821 396.249 458.792 396.253 458.76 396.258C459.732 398.631 461.105 400.819 462.819 402.727C464.435 411.851 471.675 412.772 479.448 410.18L479.452 410.18C480.274 413.883 481.478 417.491 483.045 420.945L496.181 421.048C496.229 420.902 496.273 420.752 496.316 420.606C495.1 420.673 493.88 420.591 492.683 420.361C493.667 419.173 494.651 417.975 495.635 416.786C495.657 416.764 495.678 416.741 495.697 416.716C496.196 416.108 496.7 415.504 497.199 414.896L497.199 414.895C497.24 413.019 497.039 411.145 496.602 409.32Z" fill="#F2F2F2"/>
<path d="M355.663 408.047L345.089 407.963L340.378 367.129L355.985 367.252L355.663 408.047Z" fill="#FFB6B6"/>
<path d="M356.167 420.444L323.681 418.948L323.7 418.537C323.855 415.183 325.335 412.028 327.816 409.766C330.296 407.503 333.573 406.319 336.927 406.473L336.927 406.473L343.069 402.244L353.933 407.256L356.768 407.387L356.167 420.444Z" fill="#2F2E41"/>
<path d="M400.604 408.918L390.03 408.834L385.32 368L400.927 368.124L400.604 408.918Z" fill="#FFB6B6"/>
<path d="M401.479 422.172L369 420.556L369.021 420.145C369.188 416.792 370.68 413.642 373.169 411.389C375.657 409.136 378.939 407.963 382.292 408.13L382.293 408.13L388.449 403.923L399.295 408.976L402.13 409.117L401.479 422.172Z" fill="#2F2E41"/>
<path d="M331.076 185.561C331.076 185.561 320.657 216.735 322.502 220.863C324.348 224.991 327.577 221.811 324.348 224.991C321.119 228.171 318.349 224.742 321.307 230.208C324.264 235.673 328.459 280.509 330.441 282.693C332.423 284.877 335.172 284.957 332.713 287.045C330.254 289.133 327.083 284.836 330.254 289.133C333.425 293.431 341.154 392.067 341.154 392.067L357.763 392.197C357.763 392.197 361.937 387.46 359.62 384.338C357.303 381.216 359.859 380.04 359.67 377.966C359.481 375.892 360.294 371.43 360.455 369.392C360.616 367.355 363.803 318.807 357.28 290.697L369.996 237.37L384.385 302.056C384.385 302.056 377.108 356.162 383.824 373.626C383.824 373.626 378.264 378.184 380.693 380.869C383.122 383.555 385.275 381.435 383.122 383.555C380.969 385.675 386.251 393.194 386.251 393.194L404.416 392.268L415.486 291.153C415.486 291.153 417.301 280.613 415.583 278.791C413.864 276.969 413.814 283.378 413.864 276.969L413.931 268.423C413.931 268.423 413.34 215.855 413.231 212.758C413.121 209.662 400.48 187.129 400.48 187.129L331.076 185.561Z" fill="#2F2E41"/>
<path d="M332.074 77.6157L331.591 139.243C333.533 145.226 334.51 151.48 334.485 157.77C334.338 168.246 331.94 180.301 331.905 185.58C331.869 186.28 331.94 186.981 332.115 187.659C342.081 217.302 396.256 190.859 401.181 188.382C401.415 188.267 401.54 188.203 401.54 188.203L400.735 155.081L400.992 145.561L402.765 80.2543L401.642 79.3414L391.805 71.3682L390.842 70.5878L387.834 74.9024L361.336 72.8722L351.241 69.9935L348.074 71.2519L333.8 76.9292L332.074 77.6157Z" fill="#24B4E8"/>
<path d="M315.404 201.487L319.04 182.256L330.314 182.801L325.746 202.996C326.333 204.065 326.61 205.275 326.547 206.492C326.483 207.71 326.081 208.885 325.387 209.886C324.692 210.888 323.731 211.675 322.614 212.161C321.496 212.646 320.265 212.81 319.059 212.634C317.853 212.458 316.72 211.949 315.788 211.165C314.855 210.38 314.16 209.351 313.78 208.193C313.4 207.035 313.351 205.793 313.638 204.609C313.925 203.424 314.536 202.343 315.404 201.487Z" fill="#FFB6B6"/>
<path d="M333.807 77.498C339.59 79.0446 342.84 86.5838 344.831 92.2304C347.395 99.4851 342.796 144.051 337.574 150.516C333.524 155.53 334.484 154.568 335.775 158.757C337.066 162.946 340.156 158.894 337.354 165.089C334.553 171.283 332.218 170.143 334.031 172.808C335.844 175.472 337.986 175.184 335.61 179.14C333.235 183.095 333.427 184.524 332.905 186.048C332.383 187.573 331.683 198.575 331.683 198.575C331.683 198.575 319.776 196.542 313.542 198.836C313.542 198.836 317.909 188.068 316.192 186.117C314.476 184.167 312.237 183.741 314.091 181.31C315.945 178.879 319.612 179.112 315.753 177.451C311.894 175.789 315.341 152.783 315.341 152.783C311.114 137.589 314.32 114.938 318.908 90.9001C319.587 87.3452 321.411 84.1104 324.101 81.6902C326.792 79.27 330.2 77.7976 333.807 77.498Z" fill="#24B4E8"/>
<path d="M408.054 200.933L409.05 181.387L420.294 180.398L418.506 201.026C419.232 202.005 419.671 203.167 419.773 204.382C419.875 205.596 419.636 206.815 419.083 207.901C418.531 208.988 417.686 209.898 416.644 210.531C415.603 211.163 414.405 211.493 413.187 211.482C411.968 211.471 410.777 211.12 409.746 210.469C408.716 209.818 407.888 208.893 407.355 207.797C406.821 206.701 406.604 205.478 406.728 204.266C406.852 203.053 407.311 201.899 408.054 200.933Z" fill="#FFB6B6"/>
<path d="M397.271 78.3083L397.585 78.3478C400.511 78.7163 403.303 79.7925 405.719 81.4832C408.136 83.1739 410.104 85.4281 411.453 88.0508C414.976 94.8908 425.931 141.117 423.111 147.427C420.48 153.311 420.599 151.86 422.445 155.836C424.292 159.811 426.804 155.378 424.868 161.895C422.932 168.412 420.465 167.599 422.622 169.993C424.779 172.387 426.863 171.811 425.045 176.052C423.227 180.294 423.611 181.683 423.301 183.264C422.991 184.845 423.788 195.84 423.788 195.84C423.788 195.84 411.716 195.441 405.85 198.559C405.85 198.559 408.717 187.298 406.752 185.599C404.787 183.899 402.511 183.781 404.019 181.121C405.526 178.461 409.19 178.195 405.142 177.071C401.093 175.948 401.39 152.687 401.39 152.687L397.271 78.3083Z" fill="#24B4E8"/>
<path d="M368.518 53.1625C368.991 53.2756 369.464 53.3741 369.938 53.4507C371.383 53.6998 372.852 53.7871 374.317 53.711C378.132 53.536 381.825 52.3075 384.985 50.1616C388.145 48.0157 390.649 45.0364 392.219 41.554C393.79 38.0716 394.365 34.2222 393.881 30.4328C393.398 26.6434 391.874 23.062 389.479 20.0859C387.085 17.1097 383.913 14.8551 380.315 13.5721C376.717 12.2891 372.835 12.0277 369.098 12.8171C365.36 13.6065 361.915 15.4157 359.143 18.0441C356.371 20.6725 354.382 24.0174 353.395 27.7079C353.35 27.8752 353.305 28.0352 353.267 28.2026C351.981 33.5353 352.866 39.1603 355.726 43.8409C358.586 48.5214 363.187 51.8744 368.518 53.1625Z" fill="#FFB6B6"/>
<path d="M387.623 50.8713C390.517 48.6426 390.829 44.3538 393.305 41.6681C397.444 37.1777 399.41 32.3272 397.302 26.9516C395.438 22.1971 395.888 16.374 391.817 13.2911C393.834 12.5787 394.319 11.0703 392.545 11.0285C391.348 11.0003 386.869 13.2528 389.038 10.4201C391.207 7.58737 387.135 8.68032 387.413 7.51603C387.691 6.35173 389.419 5.71919 390.172 6.64973C387.768 3.78697 382.464 4.35177 380.716 7.65668C378.326 4.01235 375.778 1.49764 372.059 3.76935C368.406 6.00049 368.432 8.79403 364.528 8.09216C362.693 7.76221 362.492 11.2332 361.226 12.6022C359.96 13.9712 358.116 15.0239 356.287 14.6633C354.457 14.3026 353.074 12.0081 354.113 10.4595L349.718 20.2783L347.994 18.1297C345.215 19.9105 346.086 24.6208 348.856 26.4167C351.625 28.2126 356.97 24.1537 358.457 27.1006C360.802 31.746 366.407 29.4534 370.268 26.2137C374.952 22.2848 380.472 34.3854 378.187 40.0549C380.53 37.7895 384.816 39.7183 385.997 42.7561C387.178 45.7939 386.268 49.199 385.35 52.3265L387.623 50.8713Z" fill="#2F2E41"/>
<path d="M348.074 71.2519L348.789 72.1762L350.708 74.6555L357.718 95.9127L391.805 71.3682L390.842 70.5878L385.767 59.5751L359.27 57.5449L351.241 69.9935L348.074 71.2519Z" fill="#3F3D56"/>
<path d="M383.73 125.61C381.879 143.942 369.552 157.71 356.198 156.361C342.844 155.012 333.519 139.058 335.37 120.726C349.162 129.93 365.21 131.792 383.73 125.61Z" fill="white"/>
<path d="M352.329 103.544C352.252 104.634 352.042 105.711 351.704 106.75C350.799 109.472 349.07 111.381 347.15 111.59C346.955 111.614 346.758 111.62 346.563 111.605C344.417 111.45 342.735 109.171 342.182 106.059C341.997 104.982 341.945 103.887 342.026 102.797C342.1 101.717 342.307 100.651 342.642 99.6221C343.633 96.61 345.634 94.5789 347.786 94.735C350.636 94.9417 352.667 98.8877 352.329 103.544Z" fill="white"/>
<path d="M349.131 107.175C349.014 108.835 348.312 110.399 347.15 111.59C346.955 111.614 346.758 111.62 346.563 111.605C344.417 111.45 342.735 109.171 342.182 106.059C341.997 104.982 341.945 103.887 342.026 102.797C342.1 101.717 342.307 100.651 342.642 99.6221C344.502 99.7676 346.229 100.644 347.445 102.059C348.661 103.475 349.267 105.314 349.131 107.175Z" fill="#3F3D56"/>
<path d="M373.673 105.092C373.349 109.563 370.958 113.066 368.247 113.159C368.134 113.163 368.02 113.162 367.906 113.153C365.063 112.947 363.032 109.001 363.37 104.345C363.443 103.267 363.65 102.203 363.986 101.177C364.977 98.158 366.978 96.1269 369.13 96.283C371.98 96.4897 374.011 100.436 373.673 105.092Z" fill="white"/>
<path d="M370.263 108.708C370.145 110.385 369.43 111.964 368.247 113.159C368.134 113.163 368.02 113.162 367.906 113.153C365.063 112.947 363.032 109.001 363.37 104.345C363.443 103.267 363.65 102.203 363.986 101.177C365.804 101.374 367.474 102.269 368.645 103.674C369.816 105.079 370.396 106.884 370.263 108.708Z" fill="#3F3D56"/>
<path d="M194.383 61.2277C199.948 61.2713 204.495 56.7942 204.539 51.2279C204.582 45.6616 200.106 41.1139 194.541 41.0703C188.975 41.0268 184.428 45.5038 184.384 51.0701C184.341 56.6364 188.817 61.1841 194.383 61.2277Z" fill="#F2F2F2"/>
<path d="M195.771 46.9573C195.759 47.1824 195.775 47.4082 195.817 47.6296C195.837 47.8708 195.923 48.1019 196.065 48.2974C196.208 48.4928 196.402 48.6449 196.626 48.737C196.665 48.747 196.705 48.7531 196.745 48.7552C197.189 48.7783 197.591 48.3549 197.784 47.7322C197.85 47.5164 197.888 47.2934 197.9 47.0683C197.912 46.8454 197.897 46.6218 197.855 46.4027C197.729 45.7607 197.372 45.2937 196.927 45.2705C196.338 45.2398 195.822 45.9955 195.771 46.9573Z" fill="white"/>
<path d="M196.333 47.7825C196.315 48.1253 196.418 48.4635 196.626 48.737C196.665 48.747 196.705 48.7531 196.745 48.7552C197.189 48.7783 197.591 48.3549 197.784 47.7322C197.85 47.5164 197.888 47.2934 197.9 47.0683C197.912 46.8454 197.897 46.6218 197.855 46.4027C197.47 46.3848 197.094 46.5199 196.809 46.7785C196.524 47.0371 196.353 47.3981 196.333 47.7825Z" fill="#F2F2F2"/>
<path d="M191.363 46.7275C191.315 47.6509 191.714 48.4292 192.267 48.5177C192.29 48.5216 192.313 48.5241 192.337 48.5253C192.924 48.5559 193.441 47.8002 193.491 46.8385C193.504 46.616 193.488 46.3929 193.446 46.1742C193.32 45.5308 192.963 45.0638 192.518 45.0407C191.93 45.0099 191.413 45.7656 191.363 46.7275Z" fill="white"/>
<path d="M191.968 47.5549C191.949 47.9012 192.055 48.2428 192.267 48.5177C192.29 48.5216 192.313 48.5241 192.337 48.5253C192.924 48.5559 193.441 47.8002 193.491 46.8384C193.504 46.616 193.488 46.3929 193.446 46.1741C193.069 46.1679 192.704 46.3084 192.428 46.566C192.153 46.8235 191.988 47.1781 191.968 47.5549Z" fill="#F2F2F2"/>
<path d="M198.633 52.0148C198.499 54.5721 196.881 56.5664 195.018 56.4693C193.155 56.3721 191.753 54.2203 191.887 51.663C192.901 52.2583 194.043 52.601 195.217 52.6622C196.391 52.7235 197.562 52.5014 198.633 52.0148Z" fill="white"/>
<path d="M246.778 165.899C252.343 165.943 256.891 161.466 256.934 155.9C256.978 150.333 252.501 145.786 246.936 145.742C241.371 145.698 236.824 150.176 236.78 155.742C236.736 161.308 241.213 165.856 246.778 165.899Z" fill="#F2F2F2"/>
<path d="M248.167 151.629C248.155 151.854 248.17 152.08 248.213 152.301C248.232 152.542 248.318 152.774 248.461 152.969C248.603 153.164 248.797 153.317 249.021 153.409C249.06 153.419 249.101 153.425 249.141 153.427C249.584 153.45 249.987 153.027 250.18 152.404C250.245 152.188 250.284 151.965 250.295 151.74C250.308 151.517 250.293 151.294 250.25 151.074C250.125 150.432 249.767 149.965 249.323 149.942C248.734 149.911 248.217 150.667 248.167 151.629Z" fill="white"/>
<path d="M248.729 152.454C248.71 152.797 248.814 153.135 249.021 153.409C249.06 153.419 249.101 153.425 249.141 153.427C249.584 153.45 249.987 153.027 250.18 152.404C250.245 152.188 250.284 151.965 250.295 151.74C250.308 151.517 250.293 151.293 250.25 151.074C249.866 151.056 249.49 151.192 249.205 151.45C248.92 151.709 248.748 152.07 248.729 152.454Z" fill="#F2F2F2"/>
<path d="M243.758 151.399C243.71 152.323 244.11 153.101 244.662 153.189C244.685 153.193 244.709 153.196 244.732 153.197C245.32 153.228 245.836 152.472 245.887 151.51C245.899 151.288 245.884 151.065 245.842 150.846C245.716 150.203 245.358 149.735 244.914 149.712C244.325 149.682 243.808 150.437 243.758 151.399Z" fill="white"/>
<path d="M244.364 152.227C244.345 152.573 244.451 152.914 244.662 153.189C244.685 153.193 244.709 153.196 244.732 153.197C245.32 153.228 245.836 152.472 245.887 151.51C245.899 151.288 245.884 151.065 245.842 150.846C245.464 150.84 245.099 150.98 244.824 151.238C244.548 151.495 244.383 151.85 244.364 152.227Z" fill="#F2F2F2"/>
<path d="M251.028 156.686C250.895 159.244 249.277 161.238 247.414 161.141C245.551 161.044 244.149 158.892 244.282 156.335C245.296 156.93 246.438 157.273 247.612 157.334C248.786 157.395 249.958 157.173 251.028 156.686Z" fill="white"/>
<path d="M441.603 49.3101C447.169 49.3536 451.716 44.8766 451.759 39.3103C451.803 33.744 447.327 29.1963 441.761 29.1527C436.196 29.1091 431.649 33.5862 431.605 39.1525C431.561 44.7188 436.038 49.2665 441.603 49.3101Z" fill="#F2F2F2"/>
<path d="M442.992 35.0397C442.98 35.2648 442.995 35.4906 443.038 35.712C443.057 35.9532 443.143 36.1843 443.286 36.3797C443.429 36.5752 443.622 36.7273 443.846 36.8193C443.885 36.8294 443.926 36.8355 443.966 36.8375C444.409 36.8606 444.812 36.4372 445.005 35.8145C445.07 35.5988 445.109 35.3758 445.12 35.1506C445.133 34.9278 445.118 34.7042 445.075 34.485C444.95 33.843 444.592 33.376 444.148 33.3528C443.559 33.3222 443.042 34.0779 442.992 35.0397Z" fill="white"/>
<path d="M443.554 35.8649C443.535 36.2076 443.639 36.5458 443.846 36.8193C443.885 36.8294 443.926 36.8355 443.966 36.8375C444.409 36.8606 444.812 36.4372 445.005 35.8145C445.07 35.5988 445.109 35.3758 445.12 35.1506C445.133 34.9278 445.118 34.7042 445.075 34.485C444.691 34.4671 444.315 34.6023 444.03 34.8609C443.745 35.1194 443.573 35.4804 443.554 35.8649Z" fill="#F2F2F2"/>
<path d="M438.583 34.8098C438.535 35.7332 438.935 36.5116 439.487 36.6001C439.51 36.604 439.534 36.6065 439.557 36.6077C440.145 36.6383 440.661 35.8826 440.712 34.9208C440.724 34.6984 440.709 34.4753 440.667 34.2565C440.541 33.6132 440.183 33.1462 439.739 33.123C439.15 33.0923 438.633 33.848 438.583 34.8098Z" fill="white"/>
<path d="M439.189 35.6373C439.17 35.9836 439.276 36.3252 439.487 36.6C439.51 36.6039 439.534 36.6065 439.557 36.6077C440.145 36.6383 440.661 35.8826 440.712 34.9208C440.724 34.6984 440.709 34.4752 440.667 34.2565C440.289 34.2503 439.925 34.3908 439.649 34.6483C439.373 34.9059 439.208 35.2605 439.189 35.6373Z" fill="#F2F2F2"/>
<path d="M445.853 40.0971C445.72 42.6544 444.102 44.6488 442.239 44.5516C440.376 44.4545 438.974 42.3027 439.107 39.7454C440.121 40.3407 441.263 40.6834 442.437 40.7446C443.611 40.8058 444.783 40.5838 445.853 40.0971Z" fill="white"/>
<path d="M15.26 313.553C20.8254 313.596 25.3725 309.119 25.4161 303.553C25.4598 297.987 20.9835 293.439 15.418 293.395C9.85259 293.352 5.30553 297.829 5.26189 303.395C5.21825 308.962 9.69455 313.509 15.26 313.553Z" fill="#F2F2F2"/>
<path d="M16.649 299.282C16.6368 299.508 16.6522 299.733 16.6948 299.955C16.7143 300.196 16.8001 300.427 16.9428 300.622C17.0855 300.818 17.2794 300.97 17.5032 301.062C17.5424 301.072 17.5825 301.078 17.6229 301.08C18.0661 301.103 18.4688 300.68 18.6617 300.057C18.7271 299.841 18.7659 299.619 18.7773 299.393C18.7898 299.17 18.7747 298.947 18.7324 298.728C18.6067 298.086 18.2491 297.619 17.8046 297.596C17.216 297.565 16.6991 298.321 16.649 299.282Z" fill="white"/>
<path d="M17.2107 300.108C17.1922 300.45 17.2958 300.789 17.5032 301.062C17.5424 301.072 17.5825 301.078 17.6229 301.08C18.066 301.103 18.4688 300.68 18.6617 300.057C18.7271 299.842 18.7659 299.619 18.7772 299.393C18.7898 299.171 18.7747 298.947 18.7324 298.728C18.3479 298.71 17.9719 298.845 17.6868 299.104C17.4016 299.362 17.2305 299.723 17.2107 300.108Z" fill="#F2F2F2"/>
<path d="M12.2402 299.053C12.192 299.976 12.5918 300.754 13.1442 300.843C13.1674 300.847 13.1907 300.849 13.2142 300.85C13.8015 300.881 14.3184 300.125 14.3685 299.164C14.381 298.941 14.3659 298.718 14.3236 298.499C14.198 297.856 13.8403 297.389 13.3959 297.366C12.8072 297.335 12.2903 298.091 12.2402 299.053Z" fill="white"/>
<path d="M12.8456 299.88C12.8269 300.226 12.9328 300.568 13.1443 300.843C13.1674 300.847 13.1907 300.849 13.2142 300.85C13.8015 300.881 14.3184 300.125 14.3685 299.164C14.381 298.941 14.3659 298.718 14.3236 298.499C13.9464 298.493 13.5814 298.633 13.3057 298.891C13.03 299.149 12.8651 299.503 12.8456 299.88Z" fill="#F2F2F2"/>
<path d="M19.5101 304.34C19.3768 306.897 17.7586 308.891 15.8957 308.794C14.0328 308.697 12.6307 306.545 12.7641 303.988C13.7779 304.583 14.9201 304.926 16.0942 304.987C17.2683 305.049 18.4399 304.826 19.5101 304.34Z" fill="white"/>
<path d="M18.6987 153.906C24.2641 153.95 28.8111 149.473 28.8548 143.907C28.8984 138.34 24.4221 133.793 18.8567 133.749C13.2913 133.706 8.7442 138.183 8.70056 143.749C8.65692 149.315 13.1332 153.863 18.6987 153.906Z" fill="#F2F2F2"/>
<path d="M20.0876 139.636C20.0755 139.861 20.0909 140.087 20.1335 140.308C20.153 140.55 20.2388 140.781 20.3815 140.976C20.5241 141.172 20.7181 141.324 20.9418 141.416C20.981 141.426 21.0212 141.432 21.0616 141.434C21.5047 141.457 21.9074 141.034 22.1004 140.411C22.1658 140.195 22.2046 139.972 22.2159 139.747C22.2284 139.524 22.2134 139.301 22.171 139.081C22.0453 138.439 21.6877 137.972 21.2433 137.949C20.6546 137.919 20.1378 138.674 20.0876 139.636Z" fill="white"/>
<path d="M20.6494 140.461C20.6308 140.804 20.7345 141.142 20.9418 141.416C20.981 141.426 21.0211 141.432 21.0616 141.434C21.5047 141.457 21.9074 141.034 22.1004 140.411C22.1657 140.195 22.2045 139.972 22.2159 139.747C22.2284 139.524 22.2133 139.301 22.171 139.081C21.7865 139.064 21.4106 139.199 21.1255 139.457C20.8403 139.716 20.6691 140.077 20.6494 140.461Z" fill="#F2F2F2"/>
<path d="M15.6788 139.406C15.6307 140.33 16.0305 141.108 16.5829 141.197C16.6061 141.2 16.6294 141.203 16.6528 141.204C17.2402 141.235 17.757 140.479 17.8072 139.517C17.8197 139.295 17.8046 139.072 17.7622 138.853C17.6366 138.21 17.279 137.743 16.8345 137.719C16.2459 137.689 15.729 138.444 15.6788 139.406Z" fill="white"/>
<path d="M16.2843 140.234C16.2655 140.58 16.3715 140.922 16.5829 141.196C16.6061 141.2 16.6294 141.203 16.6528 141.204C17.2402 141.235 17.757 140.479 17.8072 139.517C17.8197 139.295 17.8046 139.072 17.7622 138.853C17.385 138.847 17.0201 138.987 16.7444 139.245C16.4687 139.502 16.3037 139.857 16.2843 140.234Z" fill="#F2F2F2"/>
<path d="M22.9488 144.694C22.8155 147.251 21.1972 149.245 19.3343 149.148C17.4715 149.051 16.0694 146.899 16.2027 144.342C17.2166 144.937 18.3587 145.28 19.5328 145.341C20.7069 145.402 21.8785 145.18 22.9488 144.694Z" fill="white"/>
</g>
<defs>
<clipPath id="clip0_26_1569">
<rect width="502.746" height="422.693" fill="white" transform="matrix(0.999969 0.00782797 -0.00784022 0.999969 3.87305 0)"/>
</clipPath>
</defs>
</svg>
