<svg width="565" height="392" viewBox="0 0 565 392" fill="none" xmlns="http://www.w3.org/2000/svg">
<g clip-path="url(#clip0_37_258)">
<path d="M212.924 76.5336C208.621 60.8427 243.327 47.3875 252.441 60.0234C253.708 58.227 258.392 57.1358 260.54 57.6868C262.689 58.2379 264.497 59.6156 266.26 60.9492C268.684 62.8119 271.197 64.7406 272.684 67.4188C274.183 70.086 274.414 73.7231 272.398 76.0376C270.8 77.8782 266.083 79.0685 263.681 79.5534C262.006 79.8951 260.596 80.1706 259.383 80.369C258.303 78.793 257.752 76.8422 257.951 74.9355C256.32 76.0155 255.218 77.8671 255.042 79.829C255.009 80.2368 268.585 130.197 268.585 130.197C267.185 131.024 265.455 131.795 263.461 132.5C260.078 127.398 257.301 121.38 255.471 115.087C255.053 118.977 255.119 123.198 255.626 127.486C255.89 129.767 256.287 132.06 256.794 134.352C240.661 137.835 216.395 136.689 205.838 121.876C205.836 121.815 205.835 121.753 205.833 121.692C205.757 118.92 201.976 118.231 200.965 120.813C200.708 121.466 200.473 122.032 200.262 122.482C197.188 111.483 201.166 98.7528 212.924 76.5336Z" fill="#2F2E41"/>
<path d="M432.217 200.961C428.4 205.489 421.635 206.065 417.108 202.247C416.67 201.877 416.261 201.473 415.887 201.038L364.939 217.177L357.011 204.18L417.663 185.454C422.422 181.942 429.125 182.954 432.636 187.713C435.574 191.695 435.4 197.172 432.217 200.961Z" fill="#FFB6B6"/>
<path d="M251.786 160.631C251.786 160.631 274.349 135.25 284.177 146.031C294.005 156.813 324.667 204.059 324.667 204.059L396.243 188.956L403.165 207.848L321.894 234.188C315.784 236.168 309.088 234.115 305.139 229.05L251.786 160.631Z" fill="#24B4E8"/>
<path d="M300.79 392H188.883L188.781 391.126L188.715 390.544L187.754 382.388L186.393 370.774L185.869 366.311C185.832 366.085 185.796 365.867 185.767 365.641C185.308 362.736 185.046 359.816 184.951 356.903C184.813 352.898 184.995 348.901 185.424 344.954V344.932C185.657 342.799 185.956 340.687 186.327 338.597C186.793 335.911 187.354 333.267 188.002 330.682C188.744 327.682 189.589 324.763 190.513 321.945C191.576 318.646 192.741 315.486 193.942 312.5C194.074 312.18 194.205 311.86 194.328 311.547L194.336 311.539C200.67 296.095 207.863 285.544 207.863 285.544H289.388C289.388 285.544 293.16 302.095 295.031 315.763C295.329 317.925 295.577 320.008 295.759 321.945C296.086 325.52 296.181 328.593 295.897 330.682C295.722 331.979 295.402 332.896 294.907 333.318C290.422 337.148 295.555 345.275 295.555 345.275C295.555 345.275 299.399 351.151 296.05 354.457C295.388 355.112 295.009 355.957 294.827 356.903C294.536 358.469 294.791 360.289 295.191 361.898C295.591 363.515 296.145 364.92 296.45 365.641C296.589 365.961 296.676 366.143 296.676 366.143L297.244 370.636L297.797 374.961L298.736 382.388L299.02 383.699L300.484 390.544L300.608 391.126L300.79 392Z" fill="#2F2E41"/>
<path d="M244.263 125.906L210.047 128.954L203.741 148.582L196.868 149.577C185.124 151.278 178.135 163.597 182.698 174.553L188.745 189.071C188.745 189.071 179.862 216.492 190.771 228.013L195.414 278.757L184.942 312.209L307.349 316.161L286.499 274.201L285.881 248.148C285.881 248.148 299.204 201.057 286.852 186.078L282.032 143.474L256.922 139.707L244.263 125.906Z" fill="#24B4E8"/>
<path d="M267.428 100.725C270.954 85.515 261.484 70.3261 246.276 66.7997C231.069 63.2733 215.882 72.7447 212.356 87.9547C208.831 103.165 218.301 118.353 233.508 121.88C248.716 125.406 263.902 115.935 267.428 100.725Z" fill="#FFB6B6"/>
<path d="M197.496 78.7379C193.193 63.047 227.9 49.5918 237.013 62.2277C238.281 60.4312 242.964 59.3401 245.113 59.8911C247.262 60.4422 249.069 61.8199 250.832 63.1535C253.257 65.0161 255.769 66.9449 257.257 69.6231C258.755 72.2903 258.987 75.9274 256.97 78.2419C255.372 80.0825 250.656 81.2728 248.253 81.7577C246.579 82.0994 245.168 82.3749 243.956 82.5733C242.876 80.9973 242.325 79.0464 242.523 77.1397C240.892 78.2198 239.79 80.0714 239.614 82.0333C239.581 82.4411 253.157 132.401 253.157 132.401C251.758 133.228 250.028 133.999 248.033 134.705C244.65 129.602 241.873 123.584 240.044 117.291C239.625 121.181 239.691 125.403 240.198 129.69C240.463 131.971 240.859 134.264 241.366 136.556C225.233 140.039 200.968 138.893 190.411 124.08C190.409 124.019 190.407 123.958 190.405 123.896C190.33 121.124 186.549 120.436 185.537 123.017C185.281 123.671 185.045 124.236 184.835 124.686C181.76 113.687 185.738 100.957 197.496 78.7379Z" fill="#2F2E41"/>
<path d="M475.252 90.6688H378.384C376.151 90.6688 374.333 88.8576 374.333 86.6316C374.333 84.4057 376.151 82.5953 378.384 82.5953H475.252C477.485 82.5953 479.302 84.4057 479.302 86.6316C479.302 88.8576 477.485 90.6688 475.252 90.6688Z" fill="#24B4E8"/>
<path d="M426.782 103.689C426.419 102.796 425.169 102.796 424.807 103.689C422.281 109.916 418.686 116.889 414.775 122.219C414.149 123.072 415.012 124.212 416.007 123.852L424.391 120.819V172.724H427.197V120.819L435.584 123.853C436.579 124.213 437.442 123.072 436.816 122.219C432.905 116.89 429.309 109.916 426.782 103.689Z" fill="#3F3D56"/>
<path d="M562.503 120.34H502.782C501.404 120.34 500.284 119.223 500.284 117.851C500.284 116.478 501.404 115.362 502.782 115.362H562.503C563.88 115.362 565 116.478 565 117.851C565 119.223 563.88 120.34 562.503 120.34Z" fill="#F2F2F2"/>
<path d="M532.62 128.367C532.396 127.816 531.626 127.816 531.402 128.367C529.845 132.206 527.629 136.505 525.217 139.791C524.831 140.317 525.363 141.02 525.977 140.798L531.146 138.928V170.929H532.876V138.928L538.047 140.798C538.66 141.02 539.192 140.317 538.806 139.791C536.395 136.505 534.178 132.206 532.62 128.367Z" fill="#F2F2F2"/>
<path d="M532.652 201.807C539.819 201.807 545.629 195.996 545.629 188.828C545.629 181.66 539.819 175.849 532.652 175.849C525.485 175.849 519.675 181.66 519.675 188.828C519.675 195.996 525.485 201.807 532.652 201.807Z" fill="#F2F2F2"/>
<path d="M371.028 46.7964H311.307C309.93 46.7964 308.809 45.6797 308.809 44.3073C308.809 42.935 309.93 41.8188 311.307 41.8188H371.028C372.406 41.8188 373.526 42.935 373.526 44.3073C373.526 45.6797 372.406 46.7964 371.028 46.7964Z" fill="#F2F2F2"/>
<path d="M341.145 54.8234C340.922 54.2732 340.151 54.2732 339.928 54.8235C338.371 58.6627 336.154 62.9621 333.743 66.2478C333.357 66.7739 333.889 67.4768 334.503 67.2548L339.671 65.3846V97.3857H341.402V65.3845L346.572 67.255C347.186 67.477 347.718 66.7741 347.332 66.248C344.92 62.9623 342.703 58.6627 341.145 54.8234Z" fill="#F2F2F2"/>
<path d="M341.178 128.264C348.345 128.264 354.155 122.453 354.155 115.285C354.155 108.117 348.345 102.306 341.178 102.306C334.01 102.306 328.2 108.117 328.2 115.285C328.2 122.453 334.01 128.264 341.178 128.264Z" fill="#F2F2F2"/>
<path d="M190.723 366.775C193.785 361.706 192.159 355.114 187.09 352.051C186.599 351.754 186.085 351.498 185.553 351.283L184.479 297.843L169.626 294.506L171.367 357.968C169.57 363.603 172.68 369.628 178.313 371.425C183.027 372.929 188.158 371.007 190.723 366.775Z" fill="#FFB6B6"/>
<path d="M201.055 155.934C201.055 155.934 182.854 151.565 177.03 163.943C171.206 176.322 170.71 230.188 170.71 230.188L167.566 339.428L190.653 338.41L209.064 203.991L201.055 155.934Z" fill="#24B4E8"/>
<path d="M192.886 382.894C193.295 383.408 193.918 383.706 194.575 383.702H312.765C313.966 383.701 314.938 382.726 314.937 381.525C314.937 381.376 314.921 381.227 314.891 381.081L313.056 372.365C312.902 371.643 312.392 371.048 311.702 370.785C311.456 370.689 311.194 370.639 310.93 370.639H196.402C196.138 370.639 195.876 370.689 195.631 370.785C194.941 371.048 194.431 371.643 194.276 372.365L192.442 381.081C192.31 381.722 192.473 382.387 192.886 382.894Z" fill="#CCCCCC"/>
<path d="M147.638 187.779V324.132C147.641 327.751 150.573 330.683 154.191 330.686H356.222C359.839 330.683 362.771 327.751 362.774 324.132V187.779C362.765 184.164 359.836 181.237 356.222 181.233H154.191C150.577 181.238 147.647 184.164 147.638 187.779Z" fill="#E6E6E6"/>
<path d="M280.47 301.527C280.23 301.447 279.975 301.411 279.72 301.411H232.456C231.065 301.411 229.929 302.539 229.929 303.93V378.609H282.239V303.93C282.239 302.831 281.526 301.855 280.47 301.527ZM261.512 338.255C261.497 341.343 258.986 343.833 255.899 343.818C252.834 343.796 250.358 341.321 250.344 338.255V329.59C250.373 326.51 252.899 324.034 255.979 324.063C259.022 324.093 261.483 326.554 261.512 329.59V338.255Z" fill="#CCCCCC"/>
</g>
<defs>
<clipPath id="clip0_37_258">
<rect width="565" height="392" fill="white"/>
</clipPath>
</defs>
</svg>
