<svg width="1272" height="275" viewBox="0 0 1272 275" fill="none" xmlns="http://www.w3.org/2000/svg">
<mask id="mask0_102_216" style="mask-type:alpha" maskUnits="userSpaceOnUse" x="-8" y="0" width="1280" height="140">
<rect x="-8" width="1280" height="140" fill="#D9D9D9"/>
</mask>
<g mask="url(#mask0_102_216)">
<path fill-rule="evenodd" clip-rule="evenodd" d="M1272 122L1213.62 132.167C1155.25 142.333 1038.5 162.667 921.75 132.167C805 101.667 688.25 20.3333 571.5 20.3333C454.75 20.3333 338 101.667 221.25 111.833C104.5 122 -12.25 61 -70.625 30.5L-129 0V183H-70.625C-12.25 183 104.5 183 221.25 183C338 183 454.75 183 571.5 183C688.25 183 805 183 921.75 183C1038.5 183 1155.25 183 1213.62 183H1272V122Z" fill="#2C6173"/>
<path fill-rule="evenodd" clip-rule="evenodd" d="M-8 124.333L53.125 133.778C114.25 143.222 236.5 162.111 358.75 133.778C481 105.444 603.25 29.8889 725.5 29.8889C847.75 29.8889 970 105.444 1092.25 114.889C1214.5 124.333 1336.75 67.6667 1397.88 39.3333L1459 11V181H1397.88C1336.75 181 1214.5 181 1092.25 181C970 181 847.75 181 725.5 181C603.25 181 481 181 358.75 181C236.5 181 114.25 181 53.125 181H-8V124.333Z" fill="#24B4E8"/>
<path fill-rule="evenodd" clip-rule="evenodd" d="M1272 118.667L1206.71 126.556C1141.42 134.444 1010.83 150.222 880.25 126.556C749.667 102.889 619.083 39.7778 488.5 39.7778C357.917 39.7778 227.333 102.889 96.75 110.778C-33.8334 118.667 -164.417 71.3333 -229.708 47.6667L-295 24V166H-229.708C-164.417 166 -33.8334 166 96.75 166C227.333 166 357.917 166 488.5 166C619.083 166 749.667 166 880.25 166C1010.83 166 1141.42 166 1206.71 166H1272V118.667Z" fill="#BCE7F4"/>
</g>
<rect x="-8" y="140" width="1280" height="135" fill="#BCE7F4"/>
</svg>
