<?xml version="1.0" encoding="UTF-8"?><svg id="Layer_1" xmlns="http://www.w3.org/2000/svg" viewBox="0 0 348.47 348.47"><defs><style>.cls-1{fill:#fff;stroke-width:0px;}.cls-2{fill:#414042;stroke:#231f20;stroke-miterlimit:10;stroke-width:18px;}</style></defs><circle class="cls-2" cx="174.23" cy="174.23" r="165.23"/><path class="cls-1" d="m152.29,86.3h48.44v170.31c0,13.37-10.85,24.22-24.22,24.22h0c-13.37,0-24.22-10.85-24.22-24.22V86.3h0Z"/><path class="cls-1" d="m179.44,61.03h48.01c.12,0,.21.1.21.21v99.89c0,13.37-10.85,24.22-24.22,24.22h0c-13.37,0-24.22-10.85-24.22-24.22V61.24c0-.12.1-.21.21-.21Z" transform="translate(-27.52 179.94) rotate(-45)"/><path class="cls-1" d="m149.58,61.03h0c13.37,0,24.22,10.85,24.22,24.22v99.89c0,.12-.1.21-.21.21h-48.01c-.12,0-.21-.1-.21-.21v-99.89c0-13.37,10.85-24.22,24.22-24.22Z" transform="translate(168.25 316.06) rotate(-135)"/></svg>